<?xml version="1.0" standalone="no"?>
<!DOCTYPE svg PUBLIC "-//W3C//DTD SVG 20010904//EN"
 "http://www.w3.org/TR/2001/REC-SVG-20010904/DTD/svg10.dtd">
<svg version="1.0" xmlns="http://www.w3.org/2000/svg"
 width="428.000000pt" height="588.000000pt" viewBox="0 0 428.000000 588.000000"
 preserveAspectRatio="xMidYMid meet">
<metadata>
Created by potrace 1.16, written by Peter Selinger 2001-2019
</metadata>
<g transform="translate(0.000000,588.000000) scale(0.100000,-0.100000)"
fill="rgba(239, 243, 26, 1)" stroke="none">
<path d="M1965 5720 c-423 -43 -808 -222 -1104 -513 -159 -157 -210 -237 -156
-245 14 -2 33 14 64 53 76 95 253 259 362 335 110 76 267 159 385 204 101 38
282 82 397 96 143 18 443 8 572 -20 221 -47 446 -142 640 -272 155 -104 367
-314 464 -462 142 -214 220 -400 271 -642 17 -83 23 -130 34 -298 5 -67 17
-86 44 -69 14 9 17 25 15 99 -11 424 -191 851 -492 1165 -289 303 -642 491
-1041 553 -124 20 -342 27 -455 16z"/>
<path d="M572 4586 c-18 -9 -56 -31 -85 -50 -30 -20 -83 -45 -119 -56 -122
-37 -178 -102 -178 -204 0 -77 30 -126 77 -126 12 0 14 8 9 43 -20 133 -21
124 21 166 28 28 56 44 105 59 37 11 95 38 128 61 75 49 120 60 166 37 39 -18
74 -69 74 -107 0 -29 -41 -72 -82 -88 -37 -14 -38 -48 -2 -57 37 -9 101 23
130 65 69 103 -23 259 -158 268 -33 2 -66 -2 -86 -11z"/>
<path d="M899 4388 c-11 -20 -9 -25 17 -43 16 -11 48 -39 72 -61 54 -53 57
-96 11 -169 -41 -65 -27 -92 38 -70 6 2 24 25 39 50 57 98 28 204 -76 276 -63
44 -85 48 -101 17z"/>
<path d="M442 4369 c-105 -52 -140 -141 -102 -260 28 -85 61 -125 90 -109 25
13 25 31 0 79 -10 21 -24 59 -30 83 -15 57 3 96 59 134 51 33 83 29 97 -14 22
-69 64 -70 64 -2 0 52 -13 76 -50 95 -40 21 -77 19 -128 -6z"/>
<path d="M865 4279 c-4 -6 -1 -22 6 -36 12 -23 11 -27 -9 -43 -12 -10 -66 -33
-120 -50 -176 -58 -257 -115 -263 -186 -4 -58 -1 -66 29 -62 20 2 29 11 37 35
21 64 57 88 215 143 117 40 145 54 164 82 19 27 21 78 4 100 -17 21 -55 32
-63 17z"/>
<path d="M2230 4216 c-227 -48 -402 -180 -687 -520 -268 -317 -322 -353 -552
-365 -91 -5 -116 -9 -124 -23 -8 -12 -7 -21 2 -32 11 -13 33 -16 105 -16 172
1 294 44 404 144 30 28 112 118 182 201 259 306 391 426 543 494 88 40 160 55
252 54 117 -1 183 -28 262 -110 37 -38 69 -63 82 -63 88 0 -44 162 -174 214
-81 32 -202 41 -295 22z"/>
<path d="M110 4123 c-30 -37 -60 -115 -60 -157 0 -34 40 -103 76 -131 67 -51
111 -60 142 -28 20 19 8 40 -26 48 -16 3 -48 22 -71 41 -36 31 -41 41 -41 78
0 30 9 56 30 89 33 52 36 67 18 85 -20 20 -35 14 -68 -25z"/>
<path d="M852 4061 c-16 -10 9 -59 63 -125 85 -106 97 -206 24 -206 -17 0 -59
8 -93 17 -69 18 -96 14 -96 -16 0 -26 34 -45 104 -59 73 -15 131 -15 157 -2
26 15 49 62 49 104 0 70 -64 198 -130 262 -35 34 -54 40 -78 25z"/>
<path d="M274 3975 c-16 -65 40 -147 128 -187 67 -30 102 -32 171 -9 62 21 66
21 100 5 30 -14 39 -15 52 -4 28 23 18 50 -27 70 -55 25 -70 25 -144 -1 l-61
-22 -56 26 c-59 27 -86 57 -96 110 -5 25 -12 33 -34 35 -21 3 -28 -2 -33 -23z"/>
<path d="M2737 3933 c-15 -15 -5 -50 32 -112 64 -108 232 -414 342 -622 146
-277 151 -284 180 -284 17 0 25 6 27 22 4 26 -395 775 -515 966 -21 34 -50 47
-66 30z"/>
<path d="M3490 3857 c-21 -15 -51 -53 -75 -96 -49 -91 -97 -146 -146 -171 -49
-25 -82 -25 -136 1 -53 25 -76 20 -71 -18 4 -39 67 -73 136 -73 104 0 197 74
277 220 22 40 50 77 62 83 52 23 108 -25 107 -92 -2 -50 -45 -214 -110 -413
-33 -100 -53 -177 -49 -188 7 -22 37 -27 53 -7 11 14 111 314 142 427 49 182
47 235 -13 305 -29 34 -39 38 -88 42 -45 4 -60 0 -89 -20z"/>
<path d="M2151 3801 c-12 -8 -13 -15 -4 -34 8 -17 22 -26 50 -30 49 -8 101
-42 130 -86 27 -40 30 -104 8 -157 -15 -37 -12 -59 11 -68 19 -7 48 23 62 64
34 97 -4 219 -85 270 -70 45 -140 61 -172 41z"/>
<path d="M2026 3759 c-104 -65 -396 -374 -396 -417 0 -13 9 -23 22 -28 19 -6
31 3 78 57 103 120 245 261 313 311 37 28 67 52 67 54 0 13 -21 54 -28 54 -4
0 -30 -14 -56 -31z"/>
<path d="M284 3765 c-15 -38 47 -142 105 -176 77 -47 202 -20 296 64 34 30 38
38 29 54 -17 28 -41 27 -82 -5 -111 -88 -216 -80 -269 22 -26 51 -67 72 -79
41z"/>
<path d="M742 3638 c-7 -7 -12 -16 -12 -20 0 -5 33 -63 73 -128 63 -105 75
-120 99 -120 15 0 29 4 32 9 9 14 -31 96 -87 180 -64 95 -78 106 -105 79z"/>
<path d="M951 3586 c-27 -28 -32 -40 -27 -61 6 -23 10 -26 36 -20 27 6 30 4
30 -18 0 -13 -7 -30 -15 -37 -16 -13 -11 -49 8 -62 16 -10 45 9 62 42 21 41
30 141 16 168 -19 35 -70 30 -110 -12z"/>
<path d="M2463 3432 c-31 -2 -46 -9 -58 -29 -15 -22 -15 -27 -3 -39 11 -11 25
-12 63 -5 154 29 255 -72 255 -253 0 -59 -5 -81 -30 -131 -16 -33 -35 -68 -42
-77 -11 -15 -9 -21 9 -40 l23 -22 23 22 c36 34 75 121 87 195 19 118 -22 251
-96 317 -60 52 -129 71 -231 62z"/>
<path d="M476 3397 c-50 -15 -81 -55 -72 -92 9 -33 50 -72 113 -105 26 -14 56
-32 67 -40 23 -19 149 -21 168 -2 22 22 -4 45 -69 58 -81 16 -185 69 -181 92
6 32 89 28 166 -8 37 -17 74 -37 82 -44 46 -39 91 -16 65 34 -16 32 -145 95
-224 110 -64 12 -65 12 -115 -3z"/>
<path d="M1818 3389 c-29 -16 -21 -38 35 -98 77 -83 127 -164 166 -266 29 -76
35 -106 39 -198 4 -93 7 -109 24 -118 14 -8 24 -7 35 3 25 20 12 222 -20 313
-48 138 -93 211 -196 318 -60 62 -58 61 -83 46z"/>
<path d="M2283 3382 c-33 -11 -201 -135 -208 -155 -7 -20 10 -47 29 -47 10 0
211 142 233 164 3 2 2 14 -2 25 -7 22 -15 24 -52 13z"/>
<path d="M964 3211 c-62 -10 -74 -17 -74 -40 0 -35 20 -39 129 -29 295 27 498
-98 566 -347 25 -92 30 -290 11 -414 -9 -57 -20 -109 -25 -115 -5 -6 -14 -38
-21 -71 -7 -33 -26 -88 -42 -123 -32 -69 -31 -92 4 -92 46 1 102 126 144 320
26 118 27 406 1 500 -55 206 -179 339 -367 394 -64 19 -252 29 -326 17z"/>
<path d="M831 3162 c-7 -2 -23 -13 -35 -24 -11 -10 -30 -27 -41 -37 -71 -63
-135 -81 -135 -38 0 54 -50 63 -74 13 -68 -143 66 -169 238 -46 50 36 76 69
76 97 0 26 -13 41 -29 35z"/>
<path d="M3705 3105 c-111 -21 -150 -52 -111 -85 12 -9 32 -8 93 7 53 12 113
17 188 17 184 -2 269 -43 269 -129 0 -31 -13 -48 -110 -147 -145 -148 -237
-260 -315 -383 -35 -55 -81 -125 -103 -155 -145 -202 -294 -309 -415 -298 -62
6 -103 35 -130 93 -16 35 -26 45 -45 45 -30 0 -37 -19 -25 -65 26 -93 128
-152 242 -142 167 15 334 161 514 448 91 145 173 248 315 395 107 110 132 141
139 174 22 97 -39 183 -150 214 -87 24 -256 29 -356 11z"/>
<path d="M1054 3086 c-3 -8 4 -32 15 -55 12 -22 21 -47 21 -56 0 -8 4 -15 8
-15 5 0 14 -16 22 -35 8 -19 17 -35 22 -35 4 0 8 -9 8 -19 0 -11 5 -23 10 -26
14 -9 180 -341 180 -360 0 -9 10 -32 23 -53 12 -20 44 -81 70 -135 27 -54 55
-101 64 -104 18 -7 33 13 33 45 0 18 -140 338 -183 417 -47 87 -57 107 -57
117 0 6 -6 19 -14 27 -8 9 -44 75 -81 146 -38 72 -75 136 -83 143 -21 16 -51
15 -58 -2z"/>
<path d="M929 2962 c-47 -33 -8 -101 81 -141 59 -27 96 -27 111 0 15 28 2 39
-57 47 -40 6 -49 11 -49 27 0 11 6 19 13 17 22 -4 52 18 52 38 0 11 -7 21 -15
21 -65 6 -121 2 -136 -9z"/>
<path d="M1360 2859 c-26 -29 -45 -78 -34 -89 3 -2 14 1 24 8 46 29 69 -7 35
-56 -20 -27 -5 -62 26 -62 25 0 46 47 55 124 12 100 -46 141 -106 75z"/>
<path d="M3115 2866 c-116 -37 -204 -114 -270 -236 -22 -41 -67 -101 -100
-135 -107 -108 -234 -159 -542 -215 -93 -17 -207 -41 -255 -55 -205 -58 -345
-166 -395 -305 -16 -44 -9 -80 16 -80 23 0 38 18 66 79 34 73 112 144 208 190
89 42 172 65 396 106 243 45 343 79 490 164 45 27 132 131 177 214 68 122 169
201 274 214 41 5 59 1 105 -21 65 -32 99 -73 116 -139 10 -40 9 -54 -5 -92
-23 -59 -67 -95 -162 -135 -187 -77 -234 -124 -234 -235 0 -82 60 -74 72 10 9
63 43 97 137 136 115 47 153 68 189 103 130 121 94 322 -73 412 -67 36 -137
43 -210 20z"/>
<path d="M2535 2815 c-78 -64 -277 -139 -478 -180 -112 -22 -136 -36 -124 -69
8 -20 43 -21 143 0 197 40 358 97 469 169 64 41 85 62 85 86 0 28 -57 25 -95
-6z"/>
<path d="M316 2744 c-10 -27 -7 -950 5 -1052 47 -439 233 -824 543 -1125 550
-535 1402 -666 2082 -322 379 192 653 470 830 840 129 271 171 460 181 806 6
211 5 217 -14 228 -40 21 -46 -5 -50 -212 -5 -271 -33 -438 -105 -637 -61
-167 -166 -353 -282 -499 -62 -77 -217 -228 -304 -295 -203 -156 -451 -268
-718 -326 -140 -31 -433 -38 -597 -16 -366 51 -700 216 -973 478 -259 250
-426 553 -506 920 -21 97 -22 133 -28 663 -3 308 -7 561 -8 563 -8 9 -51 -1
-56 -14z"/>
<path d="M1192 2444 c-49 -34 -12 -98 83 -143 55 -26 87 -27 108 -3 24 26 6
45 -55 57 -57 11 -74 37 -28 43 35 5 44 16 31 41 -10 17 -21 21 -64 21 -31 0
-62 -6 -75 -16z"/>
<path d="M2786 2378 c-24 -14 -18 -32 55 -166 56 -104 63 -113 88 -110 14 2
27 10 29 20 4 21 -115 246 -137 257 -10 6 -24 5 -35 -1z"/>
<path d="M1157 2029 c-55 -9 -90 -28 -113 -64 -34 -52 18 -111 125 -141 31 -8
65 -20 76 -25 32 -15 163 5 180 28 18 23 18 28 -1 48 -10 10 -23 13 -33 9 -32
-15 -95 -16 -153 -4 -68 15 -104 39 -95 63 12 32 208 13 254 -25 6 -5 24 -8
40 -6 23 2 29 8 31 33 3 30 2 30 -85 57 -103 31 -160 38 -226 27z"/>
<path d="M1651 1862 c-10 -24 -8 -36 9 -78 62 -143 130 -317 130 -332 0 -9 9
-32 21 -51 21 -34 135 -345 229 -621 29 -85 58 -161 65 -169 16 -17 55 -5 55
17 0 46 -280 828 -361 1009 -11 23 -19 49 -19 57 0 8 -4 17 -8 20 -5 3 -21 38
-37 78 -41 107 -62 124 -84 70z"/>
<path d="M1451 1824 c-12 -15 -21 -32 -21 -40 0 -17 -112 -116 -121 -107 -4 5
-9 26 -11 48 -3 35 -6 40 -28 40 -34 0 -63 -55 -56 -110 12 -99 116 -84 235
36 46 47 86 121 77 145 -9 23 -53 16 -75 -12z"/>
<path d="M1847 1786 c-39 -47 -44 -65 -25 -84 18 -18 35 -14 41 9 3 12 12 19
19 17 22 -8 21 -39 -2 -71 -27 -35 -17 -62 21 -62 33 0 58 50 66 129 5 55 3
69 -12 86 -30 34 -66 26 -108 -24z"/>
<path d="M1632 1404 c-29 -20 -29 -64 1 -91 58 -52 146 -84 176 -64 9 6 11 18
7 34 -4 19 -15 27 -43 34 -43 10 -56 38 -24 48 26 8 27 31 2 45 -29 15 -93 12
-119 -6z"/>
</g>
</svg>
