<?xml version="1.0" standalone="no"?>
<!DOCTYPE svg PUBLIC "-//W3C//DTD SVG 20010904//EN"
 "http://www.w3.org/TR/2001/REC-SVG-20010904/DTD/svg10.dtd">
<svg version="1.0" xmlns="http://www.w3.org/2000/svg"
 width="146.000000pt" height="180.000000pt" viewBox="0 0 146.000000 180.000000"
 preserveAspectRatio="xMidYMid meet">

<g transform="translate(0.000000,180.000000) scale(0.100000,-0.100000)"
fill="rgba(239, 243, 26, 1)" stroke="none">
<path d="M302 1737 c-44 -46 -43 -88 4 -156 l35 -52 -65 -117 c-63 -114 -64
-117 -49 -146 15 -28 14 -32 -8 -73 -21 -38 -22 -46 -11 -76 15 -43 13 -48
-65 -179 -97 -163 -116 -210 -109 -266 33 -235 272 -512 529 -613 71 -28 94
-32 172 -32 98 0 160 15 246 58 107 55 200 128 284 225 139 160 190 269 183
387 -3 64 -8 76 -78 193 -106 180 -102 170 -89 223 11 40 10 47 -9 75 -23 32
-29 67 -12 77 21 13 8 55 -50 151 -33 54 -60 106 -60 115 0 9 9 24 21 35 59
53 65 120 15 170 -50 50 -97 48 -160 -8 l-48 -41 -76 24 c-108 34 -231 33
-324 -1 l-67 -25 -33 32 c-69 65 -126 72 -176 20z m492 -320 c56 -68 66 -104
69 -234 4 -156 2 -159 -124 -155 -73 2 -95 7 -105 20 -9 12 -13 55 -14 138 l0
120 36 59 c65 109 85 117 138 52z m-200 17 c18 -17 19 -24 8 -40 -20 -30 -72
-18 -72 16 0 17 23 39 42 40 4 0 14 -7 22 -16z m356 1 c20 -24 8 -50 -24 -50
-36 0 -56 26 -37 49 17 20 45 21 61 1z m-66 -644 c13 -15 16 -34 14 -96 l-3
-78 -48 -12 c-52 -13 -108 -59 -134 -109 -11 -22 -14 -51 -11 -111 l4 -81 -44
6 c-24 4 -48 13 -53 21 -5 8 -9 112 -9 231 0 184 2 219 16 232 12 13 39 16
133 16 103 0 120 -2 135 -19z"/>
<path d="M671 1267 c-19 -19 -12 -55 15 -76 61 -48 157 -3 140 64 -5 21 -11
23 -75 23 -39 -1 -75 -6 -80 -11z"/>
<path d="M633 779 c-16 -16 -5 -39 17 -39 25 0 35 18 20 35 -15 18 -22 19 -37
4z"/>
</g>
</svg>
